<mxfile host="Electron" modified="2024-09-10T22:51:01.325Z" agent="Mozilla/5.0 (Macintosh; Intel Mac OS X 10_15_7) AppleWebKit/537.36 (KHTML, like Gecko) draw.io/24.0.4 Chrome/120.0.6099.109 Electron/28.1.0 Safari/537.36" etag="VUjAd6OBGM1hnkY06XQQ" version="24.0.4" type="device">
  <diagram name="Page-1" id="uEMZ3NKQT36V2pF0xrTV">
    <mxGraphModel dx="1114" dy="1221" grid="0" gridSize="10" guides="0" tooltips="1" connect="1" arrows="1" fold="1" page="0" pageScale="1" pageWidth="827" pageHeight="1169" math="0" shadow="0">
      <root>
        <mxCell id="0" />
        <mxCell id="1" parent="0" />
        <mxCell id="aXKyPCOaUvqlNxAf72cW-35" value="" style="rounded=1;whiteSpace=wrap;html=1;" vertex="1" parent="1">
          <mxGeometry x="50" y="-210" width="1000" height="750" as="geometry" />
        </mxCell>
        <mxCell id="aXKyPCOaUvqlNxAf72cW-55" value="" style="rounded=1;whiteSpace=wrap;html=1;" vertex="1" parent="1">
          <mxGeometry x="640" y="310" width="240" height="210" as="geometry" />
        </mxCell>
        <mxCell id="aXKyPCOaUvqlNxAf72cW-36" value="" style="rounded=1;whiteSpace=wrap;html=1;" vertex="1" parent="1">
          <mxGeometry x="100" y="-90" width="440" height="180" as="geometry" />
        </mxCell>
        <mxCell id="aXKyPCOaUvqlNxAf72cW-4" value="Activity Tracker&#xa;Event Routing" style="shape=image;verticalLabelPosition=bottom;labelBackgroundColor=default;verticalAlign=top;aspect=fixed;imageAspect=0;image=data:image/png,iVBORw0KGgoAAAANSUhEUgAAAFcAAABXCAYAAABxyNlsAAAAAXNSR0IArs4c6QAAAIRlWElmTU0AKgAAAAgABQESAAMAAAABAAEAAAEaAAUAAAABAAAASgEbAAUAAAABAAAAUgEoAAMAAAABAAIAAIdpAAQAAAABAAAAWgAAAAAAAABIAAAAAQAAAEgAAAABAAOgAQADAAAAAQABAACgAgAEAAAAAQAAAFegAwAEAAAAAQAAAFcAAAAAUGiBFwAAAAlwSFlzAAALEwAACxMBAJqcGAAACKtJREFUeAHtm3tQ1FUUx7/LAoYIiIKiiCguiKKo4bux0NJR0ybTGntpo04+csqsSSdHzcox/cMse42TltrDasbsaU2YaU6miZKWig9UFJUURUFwl8d2zoGl3QV2IPf+doe5l2FZdn+/s7/7+X3veV0wWdaPtEMPFQTsASqsaptVBDRchUrQcDVchQQUmtbK1XAVElBoWitXw1VIQKFprVwNVyEBhaa1cjVchQQUmtbK1XAVElBoWitXw1VIQKFprVwNVyEBhaa1cjVchQQUmtbK1XAVElBoWitXw1VIQKFprVwNt2EE+E+HKu2VsNOXP4wmo1zGGWgyo3VIJJqZg2G3+x5wk4EbYDJhRPxgZNy/Fo91HQsT/e5rBTcJuAwxLCgU6bH9EB4civlp0zAxaTQCAwJ96h3MrcZZXvLpFXjhw00woaT8Jg5cOoIOoW2RGBmPYR0G4GzxRZwozBU/7IWPabQJQ+GKF/TkC00gTPTQwOHsV/m8a7YiARzbog0SW8ZjeNwg5BLgY4VnBHBjbDfwEjweZui6CaZlGhwQxARrDZ74jbJSlNvLYabA5GlwRlBB3xHBYeRbnY80odB6HW9kbUSLoOYY0j4NywfPlc/cdOx7CXLsi40ahsEtqyzHgJhUjOmUjgBTbVfPAem6tRibczKQffVUvfNnqOHBLTAuYRiSIxMIrqstRnezwooA+rJW2CRzWDJgNpoH3oaPsr+R14xSsGFwKyor0KN1IgWaUfWC4zf6xfTA1IyFuEoKrGvYKsowrft4PJX6sGQEdR3j/hrfuNmpj2BLzjbcLLc2+Dx3O4393TC4HLn3XDyIlQfWk6Zclyan/aGBIZiQOAI9WyfhyZQHsXTfGor2ru6hlIJWemx/TLCMEEAM69S1PDdrkOCWGpWEu8nnhgQ2Qznd2Bd3r8I1WhnuSm8ssMYcbyBcM45cOUnB5XTt66NIZ6ssk7x0asp4TEl5AD/k7pLg5HAh7GejQ1phUrf7EBMahePXcrEic50EMYdBXu6szG6tEjC6050CloPezO1L8EveH2S/TnfvON3rP10dltfNuxpkf8nLutY3geX33jv0GSnxnPjkZYOfldccFhj+mM7pGEopFo+le9/F5dIrLraKy26gY3g7LOg3Hb2jkyVDmLZtIXaez5RzXNeLvKT0wVC4nmZipsDEfnbF/rWyrDmVmtN7EgUnmyzrXlHJmJg4CkHkXj7J/g5Zl7NFiQ6brOz4sFi8MvBpDIzpBQ6grNhdF/b7LM/1G7gMKdgchK2nf8XOvH3CbHqPB2GJiMNt1CsY0+kupLS2IL/kMjYe/RrXbTccXMWdtGwWjrl9JuOOdn3k5jy/awW2ndtLYCW7rjnWyCeGFhENmZiZgthvF7LwkGUkwqiUtUR0RN6NfCwZOFvy35UHPsSO8/vIu/63yPm5jRTO7qYnZSSrsjZg88mfJOg5H9eQz/fmMSZ//Cc/zk8fSboXr90xVxL//NICxDSPwg4KSgt2v4nzBNu90GB9chbC2QGfX26vcLkB3oTWQFv++U9+3DLcdHwrMs7+LupjsP9Q8Poo+1ucuZ5XCyxPlnXMKV1xWYk/gBX+fuVz5YqqH7g3+zFVVI7BVVvmP38jiPxyfYMBc+rmS1fgfG1+C5eX9aPUl3WMrpGdkdYmBWXkV+sb7Br0TkR9dKpfZ5/5cOJo3BM3sMrnUobQhgqIR5PGID48lvLfiloWHD43lBo2rHpfN8r5Av1Ouay8mObReO72JwTg7ot/4tmdy6XySu/QT/q0AXV0zdgl3BnbF1vuXY1xXYb7hYL9Di4HpJepixVFe2H8fNGe1ci8dBgfHPlSYM/qORHJLTu7FAasUu6UjaUKLiGiAxb2nyHVnLHFrlyey4Nf5blW8qcMaEbPh6QSe+fQp/jm1A5xDYXUCE+N6irwqJtLwe2wVGE8Gw5g3NQ5TL2LJPLNDJibNvx7btF5Qu+b4Tdwq/q0oXh9yDxqzETT9swZzPrlVerHBkkGwIUEl77cAO8T3Q178w/hbNHFGmrcBL9iLaSy+Cg4+MWHtZOqLuvSUZwrzveJDzYULvcPgsyB4CrM5bs6AM3tPRlD4wZIzjqd+gL5JQWS5zJBTrHOkAotLTuiC1VtDPCns7urdi6q7XF+XFBaiCNXc9C9VRe0o5s0tvNQHKQ+BJ/LCv6vrqu5L8qeGNZy5J5qj+hEUV59/dwHLMNFnWv+/kKWvXM/l+FeokJiA/UVuOebTHBfSJtSbz/3HO2d8Q3giu29oYsx59fXkJHLN4MrN2OGgXCrtnm4ueJpHCo4hjV/fV6rUc7nhNBWDTd1vjjxo+ws3J9wtydTNe/xTVo2aI64koLSq7QajInjhsFlN/BXwXFsOrZVlnjNzKuf8FZMobUIW05myI6B+/uO33lHY93hzXRMEZIoa3DfcGRV8h5aQngc+rZNqfnrm7cPfkIboCW1jnfYVfHTZGTjhgOSt3Z/uZXI6RfdE6dhgpV2IuLD20vDnIMfj0W/r8anxu/+2g1TLk/SRg1sbgvWOwiUe7errmPZ/wbQsaxE58G7Fe1D2+CZ3o+Lb+f35v+2El/l/CzZgrvKnc9V8dxQuCIyV6nd0pycYXEqx9nBov4zMSp+iNhlsF/nbJedDF80cwyFe0skPZzMFVok7UTMS5sqG5O8Kbl4z1uiWM5SfDWMCZuKZ8eqLKLNSW6mF9H2z/LM98XH8j6aL4ehAU3lRLlA4G5YRLMW0pOwltsMzQzqmJuxAa2OC/DaS+zPuUC4LHksadmLvv3/XmST8LmOyTNgowoEx2d6+tkkfK6nCfryPQ1XIX0NV8NVSEChaa1cDVchAYWmtXI1XIUEFJrWytVwFRJQaForV8NVSEChaa1cDVchAYWmtXI1XIUEFJrWytVwFRJQaForV8NVSEChaa1cDVchAYWmtXI1XIUEFJrmPwrx1T+7KJyWf5j+F+B/EFhsBW9HAAAAAElFTkSuQmCC;" vertex="1" parent="1">
          <mxGeometry x="404" y="160" width="77" height="77" as="geometry" />
        </mxCell>
        <mxCell id="aXKyPCOaUvqlNxAf72cW-9" style="edgeStyle=orthogonalEdgeStyle;rounded=0;orthogonalLoop=1;jettySize=auto;html=1;entryX=0;entryY=0.5;entryDx=0;entryDy=0;strokeWidth=4;" edge="1" parent="1" source="aXKyPCOaUvqlNxAf72cW-10" target="aXKyPCOaUvqlNxAf72cW-4">
          <mxGeometry relative="1" as="geometry" />
        </mxCell>
        <mxCell id="aXKyPCOaUvqlNxAf72cW-10" value="Auditing Events" style="rounded=1;whiteSpace=wrap;html=1;" vertex="1" parent="1">
          <mxGeometry x="120" y="168.5" width="120" height="60" as="geometry" />
        </mxCell>
        <mxCell id="aXKyPCOaUvqlNxAf72cW-50" style="edgeStyle=orthogonalEdgeStyle;rounded=0;orthogonalLoop=1;jettySize=auto;html=1;entryX=0.5;entryY=0;entryDx=0;entryDy=0;fontSize=19;strokeWidth=3;" edge="1" parent="1" source="aXKyPCOaUvqlNxAf72cW-12" target="aXKyPCOaUvqlNxAf72cW-39">
          <mxGeometry relative="1" as="geometry" />
        </mxCell>
        <mxCell id="aXKyPCOaUvqlNxAf72cW-51" style="edgeStyle=orthogonalEdgeStyle;rounded=0;orthogonalLoop=1;jettySize=auto;html=1;entryX=0.5;entryY=0;entryDx=0;entryDy=0;strokeWidth=3;" edge="1" parent="1" source="aXKyPCOaUvqlNxAf72cW-12" target="aXKyPCOaUvqlNxAf72cW-40">
          <mxGeometry relative="1" as="geometry" />
        </mxCell>
        <mxCell id="aXKyPCOaUvqlNxAf72cW-56" style="edgeStyle=orthogonalEdgeStyle;rounded=0;orthogonalLoop=1;jettySize=auto;html=1;" edge="1" parent="1" source="aXKyPCOaUvqlNxAf72cW-12" target="aXKyPCOaUvqlNxAf72cW-52">
          <mxGeometry relative="1" as="geometry" />
        </mxCell>
        <mxCell id="aXKyPCOaUvqlNxAf72cW-12" value="Cloud Logs" style="shape=image;verticalLabelPosition=bottom;labelBackgroundColor=default;verticalAlign=top;aspect=fixed;imageAspect=0;image=data:image/png,iVBORw0KGgoAAAANSUhEUgAAAI0AAAB7CAYAAABJlQOhAAAAAXNSR0IArs4c6QAAAIRlWElmTU0AKgAAAAgABQESAAMAAAABAAEAAAEaAAUAAAABAAAASgEbAAUAAAABAAAAUgEoAAMAAAABAAIAAIdpAAQAAAABAAAAWgAAAAAAAABIAAAAAQAAAEgAAAABAAOgAQADAAAAAQABAACgAgAEAAAAAQAAAI2gAwAEAAAAAQAAAHsAAAAAlu6rKgAAAAlwSFlzAAALEwAACxMBAJqcGAAAGqdJREFUeAHtXWmQHdV1Pm+fTZoZSaNttKGVVRiwQMLYluMgQIYg4pgArjgsSQUbU06FshNnsVNJSP4klTj5kYpTJE4VTogNhCKAgZgEAtgskQABMpLYtAtptMw+89Z83zndb957eiNNWzP95o3unXndt+89d+lzvnvuuUt3Rwpw4pzjQAAORAPQOlLHAeWAA40DQmAOONAEZplL4EDjMBCYAw40gVnmEjjQOAwE5oADTWCWuQQONA4DgTngQBOYZS6BA43DQGAOONAEZplL4EDjMBCYAw40gVnmEjjQOAwE5oADTWCWuQQONA4DgTngQBOYZS6BA43DQGAOONAEZplL4EDjMBCYAw40gVnmEsQdC0Y4kM3m5fVte2Q4nZFIJDISUdXnP8RRSeeH+4kiksnkZPmSDumc2+4HnnDu7hmUN7fvk2jUz8/Px78+IYmwvh0zWuScFfNOjJzAEAeaEub29A3Jl774t7JjV5dEVAdTYCXCw9M+EU+oxQd/6FG54qB+E7KPOQZlu3vl2395q/zxPdeVlFbuffm1D+T6jfdKNpkQyTPPinyKYSP1yfYOyIZfvkye+uE95ZlN8JUDTRmDCxKd1qC/CIVU4iKJClZRpiApZLIlVJA16bw4jcjmZNFZsyWSLqcrS4SLvr5BufTT58tPX3lXIg2xE/PxEvjlFVi/bEpaUN+wXQUnwi5+8pVHYfAXjcfKK1dULV6wh6lINboSvDE+Eo3qrzzD8qsoaARaTOmZJ8srycenLpaXz4uArhbPOjpD2JdG6dl6htKQ0/KrYMeQZ75Cu51WoROYeNJomv7d+0zdawsrSMtZC6vedt/u/WpXsPWyJTZ1zimjGzpy3Fo1hBSBYZJsbSmL9y/y6FbUPoHtoEYvzrlcXnqO9kv2SJ9csG6lZHEdj6McxL326nuWFGGqBSjgZFwuXrNMKGwqhRjqtOWVnSIwfNUmgea45PJV0o4upGPWNL/oqudpLQ1y1qKZ0tMzIHHYNVvQTQm7Pto2tKNivJcmKJeo5GoMrkhNn+UGp7t/tlOObXlLBg8dkbz2+xEIABEeKNRfsGYaSSVUwNFkUqKwHaIQWgQMjnvXkTiuGa6/hMR4bgBtjLQJL413Bm0MYRHkEYOfwklDSI89/Yb09Q8LGCNpGJqpdggbfgKDtSA4St3IaMdCK7UFZT48lJW1a5bL+WfPL01a5j94qFue+u+3UBdT/qX5RJkJ/r/2+w9Ib+9gseschn/T9ZfIf/zL3WV5TfRFzUBTwLB214OPy6H/eUkGPtwrmZ5uCCYPYYmgnZq2oLCKUopINJXSPj/W3AgApITneFODxJpwboQB25ACTYMkmnBubJQYAJOY1iyxVFLizU2IS0oStKSLI20CaWKNyAfXqrkquZ0ZFkE5k8XNu+Ae6TrUA7BbB0HQXA/QPBIyaGrSPeWzWXnvH+6XA489I9nBITXoYk0QKqVDJcMzx7yFvBTYyhDGXotCjyagQQAUCj5GYDCMwmcYNI6BAGEI17i4pYnGYhLDj8Yj/do1QZvZfAzKqHAFjHqGjvZK45zJAZos6sMWRD7U2oUPGtx192tvy6Gnn8VwNW2thqAwbChTqG3YLREw5lftrIKOxBCGfp2dRQSRprnhh6mhovcOGg4/adT5kXrJAwNwJiHPlhpnc76d4l9PljN77VKnt1UaEIK/ogoTX2Lf+7ul68VXJTcI1e/dMQGgI4wcW1MOCgY/+vErcGjJ64KFFaB98jkYsQItBKNU5ysYhh+CAB62Robjp7YQrpmHBxbaKloW6RFm6U+87wjiUy3NJ0bUMIRAbm1FnXgPvCc4f7IxzGqFrmnyw2kZ2n+QMEEjN41BddI4f66k5nSoYRuJxuTw/76k9gxHORQujVx6OtZerH5exxsa5NjbOwQWrM1ZpPIybfliaCJ0Reye0F0NHetWZaJAIZAAVGI1hrRqMENrmbYpZ/sjT74hcdSrkEyh1IJsuvpj5QTe1SM/eg3dnrU9jr42XXNRGR3jW6c1ymyMns47u7MsLvCFakUDS+C045ggdNAUoCWyfX0mKIKBgkHLSc2eKbM+eRmEjRENdPC5v/cVvU1/Mos2BkHT9cpWNYYpcLrld9yoINF8AIqe93YrGAhIgqdjLYRNZnvT/6rcUG5uKK2jEHZ1iiLkdeRYn1yx8S9k176j8qvXXSJpjObi3ojt1q/ep+DNoB6sL1t9A+Ju+NxFOlRHljoc/vW77sPaFTQhyiSYbtz0cWlEXa9cf97pg4Y3zIJq7MIHDVu7r1ohQXZNVLfNizql4xOXSLK9VYU9Gl/m/sK60aJU9m3nLB81vjQi3lxt+h11gcCHBtLy/QdfNjB5QirKSlFnOfUDQN//95+WZjsiU9Bl0yL3I35Bx3TpaG+RTZ+7uIw28AX4VE0rBs7nNBOEDprp56wsN1rJB9zE0KEuSbadHDCnea+nTB6DNuJwNqHargQdp0x5EgJonA/e/0iaWhtPQjS2KM4JHYU25PyTvwqvNtnYko8bVeigYZehvQXaJFZ4DDGUDw1TrwsZt7sLmpGPE5zVBipJ7wupJEi9Y6PzM65MHfyabCp1RQ1YGjjB/tBBww5JHQCi2hYX2kUxsBYc0MrYIY8KDWNfS/pYf0kovaiYGruKbi9OkYURG6XogwJ0HBOzVajDNf39fdI/CGN9irjQQaP2DHlK/vIEfxRjZZuOR2ANXRJq/1MbVsvZh3sUv141tUY6lV+lbgRa0fGeKrUlMjkOIJ6/anw2ShXx6BXKOobtQgdN7zYs6KFl2s2S4dA44ERDxywZPnIMhnCbjn7CZgTLa8Hyw31/fasWvWXrLixWxnRkxICLLlik4ZUH0nFbA4XJIffFqxeXkTC+Gfm2NJ/+zDJHbG1tTdKLtTHFKgqtuvxRVoPxvwgdNJyM0taiM7UGHR9Ao9kN43/bp86xUvijpTgV3aniR8u3MtwHCoFDpzwEL1NYdA3bhQ4a324xoNjtGhvQVfmesLlQB+XtO3BMcrCCDTPUMJgXwkivte30R2VBbz980AA12krMooEf8KFxox2WQ001AeZgbG95Y5duJPeH2Al0nU1YxV/cOaNakgkNU3FNaAkVmbesWo4QAgcDbt9oxAAk3XVEUjNqZ89UVPO0LzkUrxyO+5kG1ajpdE4eemKLzjSndYMX+IVJyHYsT5y3aoGfbWjn8DUN+yWARLsnKhZ4qGr12juGdvcTVNCb2/bKH/3ZQ7gvrrDZvdEWmYWZ4W994/rA2uHRJ1+TzZvf1xGnzyLm2zmvTdZ9fOkE3cXo2YYOGi5GqoYhWNA1cckSW69wBBus3xq9tnUSk0rFZe/BbtmMx1K4lqaaFbfH0VUKi6j3/uEN0o6tm2NxL768U/78O0/IR129OhPMNAQgZ68vv3yltLeFvxIfevdEcPAPg1TjGSZq2FXpYIrAmQJu+Vlz5OYb10oEIIknYvhxCyrOANM/P/C83PPtH8hhgMAfCVW75eHhrDz93Da58xv3y9vv7LctqT4h1rxasSxx+01X6CKpHxzWOXTQ0PynhjF4mG0TIXA4kzo1MKOa9LorV8uGjRdJGsLnfalWxT3mswX54cOvyMab/0YefGyzHOrqgYHLFXxzfQPDsm3HAfnmvQ/J7VhZ37HzoMR1ltni8wBiI+Z8vnLbZ2TF0tl+slDPoXdPykHaNKpa2Dl5SFHFM0VQAxGuXDZX/uC3N8rWt/fIETzdoFswEB7BxvEMLOGt2/bJbV/+R1m9eol8/a6r5FrMRB/4qFv+/nvPyff+7QXpxlMRBdD66XxUcGb6k+tWyLdO8rSmTztR59BB07/9XQyx1aBBl0TIUMugr++YgTWfbklgpdvfKzNRNx1Wvp9Ys0K++bWN8uiTr8u27Qfk6HEAwSucRjKUjrwCu+eW3/qufAH7bj7CpvGDAM7AYFoKifJOgENtbrz/4q+slVs+f5kcPtIrHTNP/ljMRN1n6KDhjUSiur6tDOTIqZCnmjEbx44Tdbvh5hvFfubbb7lChoYzOkTe9k5G+Ly4rz3YZXG+hUPzHzzyf1o5HQvowasr4rLo4lKNSVm//mz58q3rocXm1MQA9rkXOmiaVy6HhmG3RPD41cBzYV1HbQOWbuscCa93H9edvn7X1XLheQvlT/7qP+XNt/fKIHcNYhSp7USVbvWmYpvVIjJ/wQzZeOUF8p0/vUVSqYrHhWvAoNBBYwoFq9qAjeobX18bjGrAgnCK3IDtnqvPXSj/BHvlRz9+UzZjIXMQC49JjKhU8xT5gKE5Ju6y6I4WLZgpl1+6TG67+XLZsP78cCo6hlJCB01xlAQVrO2Lw212T2CS10ONodr1STJ39nT53buvlpuuXyNPPLNVnsQTlc++uEMGugew0T0BsHD/cV5WrJwnVwFk1/ziBfJpPNbbBG01mVzooCEyil22oQZBfjOrrqYnE8NOty583nspXnD01Ts+ixHThfLw41vkv57dJlu27pY2zL18Cs+Q/9LVF8q1V35shE+nW+g4pw8dNHymidzgAIoOo2/rmGA0nmnL3EsWzpLfuXOD3LTpUh1FzcRbrdZevFQSmAiczC500ChC7FDFivE1zmRm2fjXbf7cthOelxr/UsYvx5Lxy/hlerKcBna8i5GDLSKYsmF3lZfkrJmYpzl+wpulTpbXVIrTVfE6uaHQQTPSURMyGD/piUYxtYzBqE54N67V5JxNvdx96KAx5tiaE6fE9THZGACDfzWQ64Vz4wqZkcyocfIla1EjMZPHF7pNM/J0JXWLaRg+qE8wqSF8Zpo1RUT4LzUYOtZ7guJtaJums8fKq2KK8D2hg6b57JU2sae9ka9h8Baqri5JzGjHRNfkHjlMtIj4gsjt//q4vPXdB/CiJu7/LWAfji3rXvfw30myJfw9wZX3HDpozIjhkJuowbwwFAy2S6tFM2LvVFbzzLrO4A1XQ1hWiTVgoxa7K/+BvMrHK2vElvBBo4YLWg7ONF/YSdGwioI5zhkH9DEfjBC4w5G7Gsmf0fYb14JnoRvC+soQoEUBo9oGPrVpUBUuJTiHhdyRkRT5RA0cLV3drTGPQgfN4I6d4IG32dPDCLVNsmOmZI4dO2PnaXwc9O4+MPIaW3RH7MbJnwLPAE+mb8Anrdk5dNCo5Y/mw1Vu0zZoSDRscK02jTatmvGj5gXbKLKCFR5PtI1p917baoYOGgUG7xk3X+yMWIszHCylMCArfIvPfGbXlNLU0h8+aDAS8AvlbDAbjjYePRRhVEue1LRsNXiLfLEuiTsdfRjpXFZNa8heImTXuGoFSvS7JrQn44dk8YRloh3zNFNs515Q9k5bNE/SPXgnIZzu7uOoEv9cnyOgEi1je14qaLlB6EMHDd78rKOlUrgqcMgc1TZBqj9FadmQ2F9DOmSJCQmeSeLCB41qGWgaZQyZYtpmZJA5SThTw2rQ2lOIFHnE0eaZDBrYNMYAHMkHoocbsHjhJvgMqmxIxS6cM+bgUQ2a92jtJvSqDG7Hm7BYKsECkFgFsJ8G8zTZo5inwXcTzmTX583T2NAbDQwAMnZB+2DkMBnmaUJfRtCN5VQsxA1+eW1V1DIMCB3Dkw6fBIbygjUjT/gjpxgM/2jv/iNVWC500PgcYW9Ex6csddXSu7bQM/dIdqidR96QJ/rDTmo8sUGvrXfXlj/hgwZcYc8UxSywTgSDFXxsA0u5WELISCGN13zjIfcIvm1QzfHbCnRkqLa8CjqNN+4qHT/hU835+XiS0E/9lNIFzsdLXFleDvUtqY5+s6G0HN9POjqWy08B6Js0mJD3yQj66fTCvLU6hg6ahhV4wpL37vVEBBB77eyhwxLHfpr8ML7/xC+w8Exk+NsCVG2T2OeesUzp+UiDZopzqXrHZY7fk9J8yG38+AYGa864HnFKN3J5QjnZIXw1hk4XVUvqUVEfPD5pdMVjeX2z/PoMHetQ6rx8GufNxnemfqLl25s7zZYhwzhPk8RHz2rtQgcN3rOqX0Dh6AASxBF/kOPgm2/J+1/6DTzXjXD85/nZHlDYOAI0YJh+iocvgTYSjbcPbWALAYk5zsCnBzWNXmMvCgEIufF5cZ1tRSod0BI8cErGM+lwYfiDJxpXSpUtKpjjozesg58GHuZDwTJU6VCObtXUOKNlt2IjRNtcls+gjjoIsHRaZwIC98Vggj6HuvCrd8xTy8DNxZuSWhYoau7CBw1uObl4oQzv2K5C1FECucXdafhMDwWr2qfYgpVzlLsxm8KlXzkKoVFQTKOCwAVGX/76J2WgwfAwnknUXsCZ34xiPA96Vi/SM46lMR+NN+FTG2q+QBViEcd64oj6FPdGWQRiLR/CkgBhugLflcdrTYczE2mdvNxYntaFpSIlEyOeDYDfsmpdvgTzogZ05lNLFzpo2DKb166R/ud/IrkBvE4+whbIFktG2vBSgeNxxQSnFBQFuc5/+Ck0ag/wl2sz9Gs8WqzKgeLBn0qMaTC818ZuafDpDMpEHfPgXIjmz7ypHZAnw+lMmPQgzhRGMYx14AjQIlF/TcS01CSg12vcH9JRixXFzrxw7b/xHC+V0yxYTy+JXUPLRPDwXOdn8FkjfIpxMrjiPYRZmYZzz5Xp115t76HJ4NUb5BIYT94r/6GiCS7VChpuEaaVSAPhkJD2C+PJcO7R4c+/o2I48zJ6TU9wsAUjqbVmO+vH1BHIzU6aBwn4YxlenpqmyCiWazTs6axcAo9hXl2QwO7DK4PX+rOsSWpvO9dUZufpvQPYQBgHBnkMDDrXr5P5G67wvs9QrEDNPJCX4jr0CnASr+epH0vf8y9K+oMPJdfXixYGpgM/3ApqGoL9v2kGbX5gsr2nDmH6Z8xmC8alplcv/DnQmoECIOALuTqNiHCNZxS+n5mHcWtBIFZNZfrGb+0axwPssGgDNnTDzzpqOOqVHRhAPvhQBusIMuMk82IpJbR+GqDEbC/E+WQIsLRevpqOX75rlBZ+A+uTa2TpF67BB1hnaZ6T4VAz0Pg3P/zeezL0zrsSgeGnH1hnBBiawfefVAgmCTAZzRncTSjzwGCGQ1jpg11EkskJ18k5eA+d2gsIzuYlc+SodD36BFoshvOqBRAN+2L6ukukadlSieNbDMxn+OBhJEOeXr4pjGL4uA2fjjj+6uvS9dwL6CZonJIGeaeHpWPjldKyYomtzKPOhPAA64NyWRRdw3x8bJ4jQJRBN4hy6PSbm8jH+qwIPseI8rx7pabK9vbL9OWL7Mt4mmLyHEK3aSpvPbVsmfCXOXDQBK9CwQc+N8yvJNXr9L4DJhAIgUKecVX5102G9+6nzlfhc86jceliOfLkMxLh/I+GIyqPN0vNnSPNK5dKqhPlAGQNGz9bVt7gnv3atTDNEMosQCtF8T1LdagjNWXn569RQPC74H74/IXl9e7f7eXjqZgmbH2o5vp3sd4GLLKgZRS6amnDDqs5aPwbTsyb63tPek52Vme6nyi1oFxoHN2gU/AbPsjYvHGE5mm9dPTPAzaWCL9p2RIoCrNHNC21CiRLzdh6is8fNi8qr48WXuXQvHhsdFWShh6EJjnFnXYLXl9BwNDrdRVjvnOlN7ARdLzUKz9ozBlNDcKpDxpoBB83HHFhXBMYM5oAaflnDEOe2pWcmaiZ+qChYvH+ODQzMatJPOZmzxGdMorpPfDoNMGYc5hahJPGppkoturcDC1LOAqfBwOA32Vp1EkPNlLzgYZMkFTz9QzXkyaegpFTXtOowHGX2kVR2hgN0W/ztWOUKNHmaRhLgWsCkL8z0E1p0HDyzoSNE4SrwNG5GMzXzZwhQx/uHpPIM4e7dLRELaUahpqGM7dIne2r/LLumLKsa6Kp3T1Rqp7zvexRaJcEcb5NNJJqxGdIDJJb/dNOaU0TTdlknK0LUVg0hG3KP4fnxhuWLBqTBJOzOzxVxZPlwOeQuOocb679c0hjuolxJKpLTZPDms/Aq5sl19MjsdZ2FahvXuSOHwd7sIbd2mrrOxxy43Vk+toOaBjaMty7MnzgkBx/4SVsZj+qKwfxNiwn+A6ZZZgP6PkAX9/PduoKM/WLjp6wcMSH+o5v2Yrlh0O6PSJzvBuReJgN9DZGAzWuGR7FEsm0c1dJ8+JOv4S6Ptd87enn4d7Q7r2y947flMi06VQe/FenZ++CAyZ6eY5gY5ZuYNcwb1GS61XYU5MnAEy+RWFbWhKbVlICrEHZupMXhmjuyWEBpKfjSb0M0xBe4wkCgPusu++Uxb92gxda36e61DRqY2BzDBcTOYBmH6sbsSAgE+KIFPVlkIhXUSs6qC8YgFEUwMTtMVxRZ6iuljMOyUmvuTDQAxWpGEZaJNH0XP/yYIRQOsbiCELS0MXiCdB6FxZU18e6BI0nFygAEzYFyZleG15DOJ70iRE6agJ6FQbweCNob/MUrkFvk3aUNAiVGAeCCZuxOODSvBhHx3g6hgOxChtFCH0IQ7htzCIpSiWq/cowXZ27+gQNBBHFLjaDjCcBSgpOuwpITrWCBkGQlD8BoNI0esrYkkCs8BS3ixIJJmpLp1eWBsEayyum1b2+LMlHpZKBiA5hWj8UTtqpNINcd6ChEZwfGJTE0iWS2Y8tC9hbTAFpQ6ew2G1ZkIlf9xRDgGjueUZ4Wqjgv0VUUYYsuHGc+5Q9mTMfRnnkauwWy2H+3BIKV8DbOA1JVFf4h9GtebBOiI/EEtKA7Rf5oUGlnwqHujOEuY8ljwm1oZ079ZxYuBBdBPsICAm/9J490BAYI+m1SGqhN2JhP0JNgWeq6Ib37NNrCyxICrvktK8hFtAf0dimqqHNwr/GhQsQARiwLIYTEchrcI/R4QrpsC9n0QIAxQMSiAZ27cauvwbhpq6WFUuVrN4PdQcaZTgBQeHjHMHni0sdn2godZXxftyp6E4VXz0f1qd88zf3+Wo/x27K125+4jo91ydo6pTZU6Xa0LXOOQ4E44ADTTB+OWpwwIHGwSAwBxxoArPMJXCgcRgIzAEHmsAscwkcaBwGAnPAgSYwy1wCBxqHgcAccKAJzDKXwIHGYSAwBxxoArPMJXCgcRgIzAEHmsAscwkcaBwGAnPAgSYwy1wCBxqHgcAccKAJzDKXwIHGYSAwB/4fu4l/vzAIAGAAAAAASUVORK5CYII=;" vertex="1" parent="1">
          <mxGeometry x="700" y="150" width="121" height="105.55" as="geometry" />
        </mxCell>
        <mxCell id="aXKyPCOaUvqlNxAf72cW-29" value="" style="endArrow=classic;html=1;strokeWidth=3;rounded=0;edgeStyle=orthogonalEdgeStyle;endFill=1;" edge="1" parent="1">
          <mxGeometry width="50" height="50" relative="1" as="geometry">
            <mxPoint x="491" y="200" as="sourcePoint" />
            <mxPoint x="680" y="200" as="targetPoint" />
            <Array as="points">
              <mxPoint x="660" y="200" />
              <mxPoint x="660" y="200" />
            </Array>
          </mxGeometry>
        </mxCell>
        <mxCell id="aXKyPCOaUvqlNxAf72cW-30" value="Operational&amp;nbsp;&lt;div&gt;Infrastructure&lt;/div&gt;&lt;div&gt;Application&lt;/div&gt;&lt;div&gt;Logs&lt;/div&gt;" style="rounded=1;whiteSpace=wrap;html=1;" vertex="1" parent="1">
          <mxGeometry x="120" y="-30" width="120" height="60" as="geometry" />
        </mxCell>
        <mxCell id="aXKyPCOaUvqlNxAf72cW-31" value="" style="shape=image;verticalLabelPosition=bottom;labelBackgroundColor=default;verticalAlign=top;aspect=fixed;imageAspect=0;image=data:image/png,iVBORw0KGgoAAAANSUhEUgAAAH4AAACACAYAAADNu93hAAAMPmlDQ1BJQ0MgUHJvZmlsZQAASImVVwdYU8kWnluSkEBooUsJvQkiUgJICaGF3puNkAQIJcZAULGjiwquXSxgQ1dFFKw0O6JYWBR7XywoKOtiwa68SQFd95XvzffNnf/+c+Y/Z86de+cOAGonOSJRLqoOQJ6wQBwb7E9PTkmlk3oABjQAFZgDKoebL2JGR4cDWIbav5d3NwAiba86SLX+2f9fiwaPn88FAImGOJ2Xz82D+BAAeCVXJC4AgCjlzacWiKQYVqAlhgFCvEiKM+W4UorT5XifzCY+lgVxKwBKKhyOOBMA1cuQpxdyM6GGaj/ETkKeQAiAGh1in7y8yTyI0yC2gTYiiKX6jPQfdDL/ppk+rMnhZA5j+VxkRSlAkC/K5Uz/P9Pxv0termTIhxWsKlnikFjpnGHebuVMDpNiFYj7hOmRURBrQvxBwJPZQ4xSsiQhCXJ71JCbz4I5AzoQO/E4AWEQG0IcJMyNDFfw6RmCIDbEcIWg0wQF7HiI9SBexM8PjFPYbBFPjlX4QuszxCymgj/HEcv8Sn09kOQkMBX6r7P4bIU+plqUFZ8EMQVii0JBYiTEqhA75ufEhSlsxhZlsSKHbMSSWGn8FhDH8oXB/nJ9rDBDHBSrsC/Nyx+aL7YlS8COVOADBVnxIfL8YK1cjix+OBfsMl/ITBjS4ecnhw/NhccPCJTPHevhCxPiFDofRAX+sfKxOEWUG62wx834ucFS3gxil/zCOMVYPLEALki5Pp4hKoiOl8eJF2VzQqPl8eDLQThggQBABxJY08FkkA0EHX0NffBO3hMEOEAMMgEfOCiYoRFJsh4hvMaBIvAnRHyQPzzOX9bLB4WQ/zrMyq8OIEPWWygbkQOeQpwHwkAuvJfIRgmHvSWCJ5AR/MM7B1YujDcXVmn/v+eH2O8MEzLhCkYy5JGuNmRJDCQGEEOIQURb3AD3wb3wcHj1g9UZZ+AeQ/P4bk94SugkPCJcJ3QRbk8SFIt/ijICdEH9IEUu0n/MBW4FNV1xf9wbqkNlXAc3AA64C/TDxH2hZ1fIshRxS7NC/0n7bzP44Wko7MhOZJSsS/Yj2/w8UtVO1XVYRZrrH/MjjzV9ON+s4Z6f/bN+yD4PtmE/W2KLsINYG3YKO48dxRoAHTuBNWLt2DEpHl5dT2Sra8hbrCyeHKgj+Ie/oScrzWS+U41Tr9MXeV8Bf5r0Gw1Yk0XTxYLMrAI6E+4IfDpbyHUcSXd2cnYBQLq/yD9fb2Jk+wai0/6dm/8HAN4nBgcHj3znQk8AsN8dvv5N3zkbBtw6lAE418SViAvlHC69EOBXQg2+afrAGO5eNnA+zsANeAE/EAhCQRSIBylgIow+C65zMZgKZoJ5oASUgeVgDdgANoNtYBfYCw6ABnAUnAJnwUVwGVwHd+Hq6QYvQD94Bz4jCEJCqAgN0UdMEEvEHnFGGIgPEoiEI7FICpKGZCJCRILMROYjZchKZAOyFalG9iNNyCnkPNKJ3EYeIr3Ia+QTiqEqqBZqhFqho1AGykTD0Hh0ApqJTkGL0AXoUnQdWoXuQevRU+hF9Drahb5ABzCAKWM6mCnmgDEwFhaFpWIZmBibjZVi5VgVVos1w+d8FevC+rCPOBGn4XTcAa7gEDwB5+JT8Nn4EnwDvguvx1vxq/hDvB//RqASDAn2BE8Cm5BMyCRMJZQQygk7CIcJZ+C71E14RyQSdYjWRHf4LqYQs4kziEuIG4l1xJPETuJj4gCJRNIn2ZO8SVEkDqmAVEJaT9pDOkG6QuomfVBSVjJRclYKUkpVEioVK5Ur7VY6rnRF6ZnSZ7I62ZLsSY4i88jTycvI28nN5EvkbvJnigbFmuJNiadkU+ZR1lFqKWco9yhvlJWVzZQ9lGOUBcpzldcp71M+p/xQ+aOKpoqdCktlvIpEZanKTpWTKrdV3lCpVCuqHzWVWkBdSq2mnqY+oH5Qpak6qrJVeapzVCtU61WvqL5UI6tZqjHVJqoVqZWrHVS7pNanTla3Umepc9Rnq1eoN6nfVB/QoGmM1ojSyNNYorFb47xGjyZJ00ozUJOnuUBzm+Zpzcc0jGZOY9G4tPm07bQztG4topa1FlsrW6tMa69Wh1a/tqa2i3ai9jTtCu1j2l06mI6VDlsnV2eZzgGdGzqfdI10mbp83cW6tbpXdN/rjdDz0+PrlerV6V3X+6RP1w/Uz9Ffod+gf98AN7AziDGYarDJ4IxB3witEV4juCNKRxwYcccQNbQzjDWcYbjNsN1wwMjYKNhIZLTe6LRRn7GOsZ9xtvFq4+PGvSY0Ex8TgclqkxMmz+nadCY9l76O3krvNzU0DTGVmG417TD9bGZtlmBWbFZndt+cYs4wzzBfbd5i3m9hYhFhMdOixuKOJdmSYZlludayzfK9lbVVktVCqwarHms9a7Z1kXWN9T0bqo2vzRSbKptrtkRbhm2O7Ubby3aonatdll2F3SV71N7NXmC/0b5zJGGkx0jhyKqRNx1UHJgOhQ41Dg8ddRzDHYsdGxxfjrIYlTpqxai2Ud+cXJ1ynbY73R2tOTp0dPHo5tGvne2cuc4VztfGUMcEjZkzpnHMKxd7F77LJpdbrjTXCNeFri2uX93c3cRutW697hbuae6V7jcZWoxoxhLGOQ+Ch7/HHI+jHh893TwLPA94/uXl4JXjtdurZ6z1WP7Y7WMfe5t5c7y3enf50H3SfLb4dPma+nJ8q3wf+Zn78fx2+D1j2jKzmXuYL/2d/MX+h/3fszxZs1gnA7CA4IDSgI5AzcCEwA2BD4LMgjKDaoL6g12DZwSfDCGEhIWsCLnJNmJz2dXs/lD30FmhrWEqYXFhG8IehduFi8ObI9CI0IhVEfciLSOFkQ1RIIodtSrqfrR19JToIzHEmOiYipinsaNjZ8a2xdHiJsXtjnsX7x+/LP5ugk2CJKElUS1xfGJ14vukgKSVSV3Jo5JnJV9MMUgRpDSmklITU3ekDowLHLdmXPd41/El429MsJ4wbcL5iQYTcycem6Q2iTPpYBohLSltd9oXThSnijOQzk6vTO/nsrhruS94frzVvF6+N38l/1mGd8bKjJ5M78xVmb1ZvlnlWX0ClmCD4FV2SPbm7Pc5UTk7cwZzk3Lr8pTy0vKahJrCHGHrZOPJ0yZ3iuxFJaKuKZ5T1kzpF4eJd+Qj+RPyGwu04I98u8RG8ovkYaFPYUXhh6mJUw9O05gmnNY+3W764unPioKKfpuBz+DOaJlpOnPezIezmLO2zkZmp89umWM+Z8Gc7rnBc3fNo8zLmfd7sVPxyuK385PmNy8wWjB3weNfgn+pKVEtEZfcXOi1cPMifJFgUcfiMYvXL/5Wyiu9UOZUVl72ZQl3yYVfR/+67tfBpRlLO5a5Ldu0nLhcuPzGCt8Vu1ZqrCxa+XhVxKr61fTVpavfrpm05ny5S/nmtZS1krVd68LXNa63WL98/ZcNWRuuV/hX1FUaVi6ufL+Rt/HKJr9NtZuNNpdt/rRFsOXW1uCt9VVWVeXbiNsKtz3dnri97TfGb9U7DHaU7fi6U7iza1fsrtZq9+rq3Ya7l9WgNZKa3j3j91zeG7C3sdahdmudTl3ZPrBPsu/5/rT9Nw6EHWg5yDhYe8jyUOVh2uHSeqR+en1/Q1ZDV2NKY2dTaFNLs1fz4SOOR3YeNT1acUz72LLjlOMLjg+eKDoxcFJ0su9U5qnHLZNa7p5OPn2tNaa140zYmXNng86ebmO2nTjnfe7oec/zTRcYFxouul2sb3dtP/y76++HO9w66i+5X2q87HG5uXNs5/ErvldOXQ24evYa+9rF65HXO28k3Lh1c/zNrlu8Wz23c2+/ulN45/PdufcI90rvq98vf2D4oOoP2z/quty6jj0MeNj+KO7R3cfcxy+e5D/50r3gKfVp+TOTZ9U9zj1He4N6Lz8f97z7hejF576SPzX+rHxp8/LQX35/tfcn93e/Er8afL3kjf6bnW9d3rYMRA88eJf37vP70g/6H3Z9ZHxs+5T06dnnqV9IX9Z9tf3a/C3s273BvMFBEUfMkf0KYLCiGRkAvN4JADUFABo8n1HGyc9/soLIz6wyBP4Tlp8RZcUNgFr4/x7TB/9ubgKwbzs8fkF9tfEARFMBiPcA6Jgxw3XorCY7V0oLEZ4DtsR8Tc9LB/+myM+cP8T9cwukqi7g5/ZffuV8XoI+GJMAAACKZVhJZk1NACoAAAAIAAQBGgAFAAAAAQAAAD4BGwAFAAAAAQAAAEYBKAADAAAAAQACAACHaQAEAAAAAQAAAE4AAAAAAAAAkAAAAAEAAACQAAAAAQADkoYABwAAABIAAAB4oAIABAAAAAEAAAB+oAMABAAAAAEAAACAAAAAAEFTQ0lJAAAAU2NyZWVuc2hvdOT+6hQAAAAJcEhZcwAAFiUAABYlAUlSJPAAAAHWaVRYdFhNTDpjb20uYWRvYmUueG1wAAAAAAA8eDp4bXBtZXRhIHhtbG5zOng9ImFkb2JlOm5zOm1ldGEvIiB4OnhtcHRrPSJYTVAgQ29yZSA2LjAuMCI+CiAgIDxyZGY6UkRGIHhtbG5zOnJkZj0iaHR0cDovL3d3dy53My5vcmcvMTk5OS8wMi8yMi1yZGYtc3ludGF4LW5zIyI+CiAgICAgIDxyZGY6RGVzY3JpcHRpb24gcmRmOmFib3V0PSIiCiAgICAgICAgICAgIHhtbG5zOmV4aWY9Imh0dHA6Ly9ucy5hZG9iZS5jb20vZXhpZi8xLjAvIj4KICAgICAgICAgPGV4aWY6UGl4ZWxZRGltZW5zaW9uPjEyODwvZXhpZjpQaXhlbFlEaW1lbnNpb24+CiAgICAgICAgIDxleGlmOlBpeGVsWERpbWVuc2lvbj4xMjY8L2V4aWY6UGl4ZWxYRGltZW5zaW9uPgogICAgICAgICA8ZXhpZjpVc2VyQ29tbWVudD5TY3JlZW5zaG90PC9leGlmOlVzZXJDb21tZW50PgogICAgICA8L3JkZjpEZXNjcmlwdGlvbj4KICAgPC9yZGY6UkRGPgo8L3g6eG1wbWV0YT4KOv0bcwAAABxpRE9UAAAAAgAAAAAAAABAAAAAKAAAAEAAAABAAAAIC78h2i8AAAfXSURBVHgB7FxrbxTXGX5mZu9rG9tczKU2mBaDoSRgwAbfSPItSqS0itKqSfqpH1qpv6SqVKk/oerHVmpaRNMLEi2xwbVDMDhOjI1JW24O2AbsZXdnd3amzzmz7AabizcKZXfOOdLa45k5u/O+z3lvz3vWxq333vegh3IaMDTwymEuBdbAq4k7NPAaeEU1oKjY2uI18IpqQFGxtcVr4BXVgKJia4vXwCuqAUXF1havgVdUA4qKrS1eA6+oBhQVW1u8Bl5RDSgqtrZ4DbyiGlBUbG3xGnhFNaCo2NriNfCKakBRsbXFa+AV1YCiYmuL18ArqgFFxdYWr4FXVAOKiq0tXgOvqAYUFVtbvAZeUQ0oKraSFm/U1cPc9i2EWlthxqJw02k4166hcP06kEkrsRSUBN7cshWxgX4k+bKampD/8kukz3wEe/gs3Pk7GvigakADDzX/MYIGXgOvXX1Q3frj5NIWry1eW/zjLCMI58z1G4BCAe69uyVx1mrxRlMzwP8C6N1bLM0NykFwy7lwGGbzeoT37oOXz8OZvQL39m0uAgfPBJ5zrU2bEdq1Cx4XjTP1Ody7BN9xgoJ7QLN6w4Cw9GhfPxL9vTRZD9nzF5D+y4fwlpZgbt785Dp+cUHOTbz+OmIvvww3m0GG9b09NAR3eUm+VxDQD6TFGw2NCHd2ov4HbyPU3CRxcu4sIDN2HvbZc/Bc54nAG/UNiB07hviRQ7Aa1xFoF/mbc1j63e9RmJ2Fl1oOAu4BtfhYHKH2diTffAPRne0w6+t9dy8YunOjKCzMI7R1yyrmrnB7HuG2VsQOdSHcsgmwLBTu3kNuegapkydRuHEDsLMa+GrWgFHXgND+7yJBWjb67Z0wk0n5uLn//BfOrTl4to141wG5KJyFRWTGx2FxgYS3beNrq7zXXV6GPXUZGXqJ3MSnQDY4PH4gXb1EjXEeholwTw8SfX2IH3jJX6eM956Th5fLs0ETk1YtkrZCNgszGoURCnEe53JkRj9GemgY+fFPANf15wfkZ3CBLwJkNDbJeB872oP4/n0wIlE/QRNAmqYPMheDBLb4t+jW2ROTSDOpK1yZgbt0PyBwl8UIPPBCVEOUdbt3I063H9mxHVZDQ1kDK45kTGcSl/5oiKCzBLx/b8UdwfhTCeAlVPEEwl1ddPu9iHV8BwYTwJXDYy8+O/k5yzfGdOHeWf8HdagDPOM9ImGCfwjxY0eR6Dq4CtPMv0aRZiKXn5gg6LnA1OyrBOWJmgTeWNdIBo5JWqry2Cto2PCePYj3HkWU7t9MJBjDl2BfnqZ7H0bh6uwj9O7jlPa4c8Y68gVk+bwUSZ4aGLUFvKBhyciFdnUwGSOVOsMYzJpc0LCVDKOxGaHOPbLUsxobUSCVK2K6Mz0NT7BzlYziM4U7OlgtOHBEXrCwUPEzVfKR38S9tQM8XbXR3IxY/wAStFbBv2fOjpCJ43YpkXVzIVQ0CFj4SLdM9Nz5BeQ+Hq1ourzZtIrUcJ//TDmb+cEIssNDXEBk+Mj6VeuoGeBlZr53L+q/9xZC6+lWWYI5ZNrSZ4ZgXzgP99atynQsanW6ecMKyboeLOEqHVbbdkSYMCYHB9jeZfgp0rvLH5ygN7oMr4orgpoBHszKQ+07Uf/9tyStKpg4YfX56zeQOTeC3MVLpFSvVYrd17ufi8ZqFaAfRPzwIURI8wpOQOYKLAVTfzyBwjXu2LUzX+/9/w+zagd4KsNoWIdIdzfifEV2tMnETOjInplFdmwM9siI7/afZ/s0HIHJvCDaSzbwSBefY4d4BLgPHiB3ZRaiMrBHx6qe3q0p4KWGaW3RV15jYtaHaMcueUr8EJYvt0izHHOf48YJc2MLQe+V7j3UsrH0+dnJz+Tn584O10QZWHvAU9WmyMrZgEkeH0Rk5w5Jw4qmi3NHxHzujx+/BPfmk92+2KARYr4Q2d3hl3OpFPJX/438xYtPXTRWWzsiBw8gMdgn270GrV+QPvbsF0if/gfyU1NVHddLq5QHVQW8/IbLJrZD1zCsTS2I7OtEgi1Us67O593Jv9tXv0CWrta+MA537uYq6zNbNstdOfGeboS3t8JgY8bLZOCw5/7g9GnutpmCy80YjwwmgBa/hBFhPI8fLrt3we87i4vIfjIO+zPu0lk575E3Kf9REInoC/7GTlUBbzF5iw8MlDX0jCMBWoyNF8m9i65acdizV5EVsVaUemLjxFdifqR/kJ5iAFHW8StHZozduH+eYTfuQvmSqNPZ6JExvfswItvbytdE3c6WbvbTSUnelC88/Sj991OsQtjbf4GjqoCPdB9F009/snZ1MN4bobBv7V+dRUDyc8WvRTHpc+9wr11xJH/0LpKvHi8lhg/Pi98uXX7q5IdIn/hT6bTYnxft7vFj+oZmv4378Krs6vltXrqWh2ef+XvhV7+GM8n+/gsc1QX8sT40//xn34g6Coz3Dxjvs+L7cLfnSu+ZfP/HqHvtuN+eLZ31Dzzurlk+8WekP/hD6Yq1rQ3R/j56CX7P7ildvdKENRzM/+KXcCYureHO53dLVQEf2v8SGn74zpqlFZsmrI0bYDLJkr314sxya5Xc+8y0X+IVr8XeeBPJVwYR3rJl1efkGXtTfz0F+9TfStd8br/Tb+m2s6XLXTqlwRgvFkuei6ySjRr3f/Nb+Vyl93kBB/8DAAD//+Jp5dIAAAcnSURBVO2c21MURxTGv9mdvSNyURPwtoCJggheAAFR85iykodYlafkKZW/LlVW5SFWJW8pFSRcjEqpMUiURFlEjVx3d2Z3Z/P1rBdoWGGJwu529wPQs9M9c86vu0+fc3oxYt98m0WRFE9dHXzH2jb0NobPhGdnFcKdHTCrqwDTdNtlbRvJ22NI9F+HPToCOJkV/ZktRxHs7UGktxuG6QMMg/c4yKZSiA8OITEwgPTdOyvaIBCAr6MT4b4zCB75FIbPn3sW26SfP0NiaBTO0iKy6ZXPWtnJ21rqxg04bLedxSgm8CBMIxDakD680ShCfX0InWiHJxzOAcxkkBgZRXxgECkBL5kAstK4DgRhNjUhdP4zBA5/Am9FGOmXs0iO3UGyvx+Zx48BK7nyHQwPEArCf/wEgt1dCJ88mfucfWdm55C4dRuJK1fhTD1Z2S5PLSveK53O8+nWXC4u8BuU2dt0CMFTHQh2noJv9y53tjtzc7DGHyB+lfAmHsCZfZm3N6NiBzx798HLtobPh2wyicz0U2RiU7nBkqelUVML3+EjHHBnEDjUCE8kwpXCRnrmuTvY7Js3kZl8mKd1cV0uLfCE5Nm1G6Fz5xHkTPft2+tq05mfh/XnOBLXBmDf40xfWvpgWjaqqmE2NyN89iwCjVF4KircZ9mTf3PJH4E1eJ3L+HMgs70zej0FlBR4AT184QKCx9th7tmdk43LbWL0BqH3wx4ZXk/e9/M5l35fTw/h09S0Hs2ZGfacmoohOfo74pcvI7s4/36e9YF6KRnwRlUNzJZmVF78CmZtTW6Jpi1O3hzjMnsd6fv3t07Z3BAaOyrha23N2fy2dpobL7K2RfjTmL/0I83NOLLzcx8I2//vtmTAg/bUjDYicuFz+BsbuDnKwJ6Y2JBNX1NNHi+89fuAYABZmgYntrGN2fK+jNpXNp8zPxA96O7qbZqcxZ9/4SbxHyARX357Uf1dOuCpNrEpM9vaEKILJ1wna3gYNnfUsLhLLqSIvQJtdaD3DLx0BTMzM7DoxjmLCwXvtt13am/PvZOd4juNwL59a7VnUMj7bcG9JQXe9bm5pHrr93Pz5HAnzllKF26Vy7aO4jwf1yFwuhuRc33w1lQhNT1Dd+warKHf4LzgxqyQIuIA4p32HnAHTWaansEm3qmQR76Pe0sL/GuJ6Yu7Rfa3X3/+jt/egw30x9sRZhDH3CPcOT+y7CdFl0z44tatMfrjXKYLLW78weFMtwptuS33lyb4zahKRPp2fYRAVxdCHSfhb4iu6kXEAZJcqi0RWePyL0f9VjUo4QtqgGc411Nd49r0ECNv/v3c1OUp9sNHDNsOvrX5Re6P5xFj3ctKgPdwTxBglC9y7ixterXrCubTjIjEvbH5o4zBz0znu7Wkr5c9eO+BKPwnjiN0uhP++vpcMkckZTiTVyRpRN3LRI/HQ3+c8Kem3ETPpm1+kQ+L8gUvXLbqWgR6umnTT72x6c7iIjILC9zQWfDV18Hw049n0iQVm4YRCsFbWZlL+hCca/OHhmGNjMB5+W/Brl4xsy9P8CKyxoRKkNm7cF8vfEz3uoUzPXnvD6QYV8+mU4gw8OKtrkbq6VPEuaP3VFTC39TABEyTO/NFGzcGz3Cwxcyds8AwrJzty/Vccj/LErxRuRO+5hbs+Priq/BuzmWzxhnp+/UKM3ez8Le1rgJv370Hs64eYfr3LnxuCsXKkIrFMP/DJWT+mmBYmEGeMihlCR7BMMyGKCJffoEAf4tiP5pkePca0pzxIkwb5GyXZ7zVP+AmXHwtLYR/1s3+ZRmNs8cZhv3pMjJPGDDaROzAfYEi+1Ge4Klkg8u22XaMm7ouN5JmMbRrDQ664Dyc1fnAi5Mxoq2/uxvB9jY3V5+knbfHxpirL97Ye6HjqmzBu+FdkYhpbOR0T+WSJuIYFm30euDftOUpHzg8ZTP5iO0YlSsT+y4GSfmCF9KJEuKxLMJbnshZF3yuJU0C24JtxVGpMivlD34NYBsGv0bbcrmkwS9z58TmbrtPv27VwNLgNfitGmvb/xy91KuwuVtjnGnwqoJ3T+DwixE8jOGtqkL62TPE+c0bcQIn++LFGkOl/C4paePBBI4R4ZcqIjwTz2NTIhWbjS8xHLtYVomYdw1XNcG/SyOKfKbBKwJaFlODlzWiSF2DVwS0LKYGL2tEkboGrwhoWUwNXtaIInUNXhHQspgavKwRReoavCKgZTE1eFkjitQ1eEVAy2Jq8LJGFKlr8IqAlsXU4GWNKFLX4BUBLYupwcsaUaSuwSsCWhZTg5c1okhdg1cEtCymBi9rRJG6Bq8IaFlMDV7WiCJ1DV4R0LKYGrysEUXqGrwioGUxNXhZI4rUNXhFQMtiavCyRhSpa/CKgJbF1OBljShS1+AVAS2LqcHLGlGkrsErAloWU4OXNaJI3Yh99z3/Z6cuqmngPyR5K3nQ0q7aAAAAAElFTkSuQmCC;" vertex="1" parent="1">
          <mxGeometry x="404" y="-30" width="75.79" height="77" as="geometry" />
        </mxCell>
        <mxCell id="aXKyPCOaUvqlNxAf72cW-32" value="Logging agent" style="text;html=1;align=center;verticalAlign=middle;resizable=0;points=[];autosize=1;strokeColor=none;fillColor=none;" vertex="1" parent="1">
          <mxGeometry x="396" y="48" width="100" height="30" as="geometry" />
        </mxCell>
        <mxCell id="aXKyPCOaUvqlNxAf72cW-33" style="edgeStyle=orthogonalEdgeStyle;rounded=0;orthogonalLoop=1;jettySize=auto;html=1;entryX=0;entryY=0.5;entryDx=0;entryDy=0;strokeWidth=4;" edge="1" parent="1">
          <mxGeometry relative="1" as="geometry">
            <mxPoint x="240" as="sourcePoint" />
            <mxPoint x="405" as="targetPoint" />
            <Array as="points">
              <mxPoint x="360" />
              <mxPoint x="360" />
            </Array>
          </mxGeometry>
        </mxCell>
        <mxCell id="aXKyPCOaUvqlNxAf72cW-34" style="edgeStyle=orthogonalEdgeStyle;rounded=0;orthogonalLoop=1;jettySize=auto;html=1;strokeWidth=3;" edge="1" parent="1">
          <mxGeometry relative="1" as="geometry">
            <mxPoint x="490" y="1" as="sourcePoint" />
            <mxPoint x="750" y="150" as="targetPoint" />
            <Array as="points">
              <mxPoint x="490" y="2" />
              <mxPoint x="750" y="2" />
              <mxPoint x="750" y="140" />
            </Array>
          </mxGeometry>
        </mxCell>
        <mxCell id="aXKyPCOaUvqlNxAf72cW-37" value="Kubernetes Cluster" style="text;html=1;align=left;verticalAlign=middle;whiteSpace=wrap;rounded=0;fontStyle=1;fontSize=15;" vertex="1" parent="1">
          <mxGeometry x="120" y="-70" width="220" height="19" as="geometry" />
        </mxCell>
        <mxCell id="aXKyPCOaUvqlNxAf72cW-38" value="IBM Cloud Account" style="text;html=1;align=center;verticalAlign=middle;whiteSpace=wrap;rounded=0;fontStyle=1;fontSize=18;" vertex="1" parent="1">
          <mxGeometry x="380" y="-170" width="360" height="20" as="geometry" />
        </mxCell>
        <mxCell id="aXKyPCOaUvqlNxAf72cW-39" value="" style="shape=image;aspect=fixed;image=data:image/svg+xml,PHN2ZyB4bWxucz0iaHR0cDovL3d3dy53My5vcmcvMjAwMC9zdmciIHhtbG5zOnhsaW5rPSJodHRwOi8vd3d3LnczLm9yZy8xOTk5L3hsaW5rIiB3aWR0aD0iMzIiIGhlaWdodD0iMzIiIHZpZXdCb3g9IjAgMCAzMiAzMiI+PGRlZnM+PHN0eWxlPi5he2ZpbGw6I2ZmZjt9LmJ7ZmlsbDp1cmwoI2EpO30uY3ttYXNrOnVybCgjYik7fS5ke2ZpbGw6dXJsKCNjKTt9LmV7ZmlsbDojMDAxZDZjO308L3N0eWxlPjxsaW5lYXJHcmFkaWVudCBpZD0iYSIgeDE9Ii0zMzEuNSIgeTE9Ii0xMjcuNSIgeDI9Ii0zMjEuNSIgeTI9Ii0xMjcuNSIgZ3JhZGllbnRUcmFuc2Zvcm09InRyYW5zbGF0ZSgzMzUuNSAxNDguNSkiIGdyYWRpZW50VW5pdHM9InVzZXJTcGFjZU9uVXNlIj48c3RvcCBvZmZzZXQ9IjAuMTMiLz48c3RvcCBvZmZzZXQ9IjAuODkiIHN0b3Atb3BhY2l0eT0iMCIvPjwvbGluZWFyR3JhZGllbnQ+PG1hc2sgaWQ9ImIiIHg9IjAiIHk9IjAiIHdpZHRoPSIzMiIgaGVpZ2h0PSIzMiIgbWFza1VuaXRzPSJ1c2VyU3BhY2VPblVzZSI+PGNpcmNsZSBjbGFzcz0iYSIgY3g9IjciIGN5PSIyNSIgcj0iMSIvPjxwYXRoIGNsYXNzPSJhIiBkPSJNMjgsMjBIMjZ2MmgydjZINFYyMmg5Ljk0VjIwSDRhMiwyLDAsMCwwLTIsMnY2YTIsMiwwLDAsMCwyLDJIMjhhMiwyLDAsMCwwLDItMlYyMkEyLDIsMCwwLDAsMjgsMjBaIi8+PHJlY3QgY2xhc3M9ImIiIHg9IjQiIHk9IjE5IiB3aWR0aD0iMTAiIGhlaWdodD0iNCIgdHJhbnNmb3JtPSJ0cmFuc2xhdGUoMTggNDIpIHJvdGF0ZSgxODApIi8+PC9tYXNrPjxsaW5lYXJHcmFkaWVudCBpZD0iYyIgeTE9IjMyIiB4Mj0iMzIiIGdyYWRpZW50VW5pdHM9InVzZXJTcGFjZU9uVXNlIj48c3RvcCBvZmZzZXQ9IjAuMSIgc3RvcC1jb2xvcj0iI2E1NmVmZiIvPjxzdG9wIG9mZnNldD0iMC45IiBzdG9wLWNvbG9yPSIjMGY2MmZlIi8+PC9saW5lYXJHcmFkaWVudD48L2RlZnM+PGcgY2xhc3M9ImMiPjxyZWN0IGNsYXNzPSJkIiB3aWR0aD0iMzIiIGhlaWdodD0iMzIiLz48L2c+PHBhdGggY2xhc3M9ImUiIGQ9Ik0xOCwxMEgxMFYyaDhaTTEyLDhoNFY0SDEyWiIvPjxwYXRoIGNsYXNzPSJlIiBkPSJNMjIsMTRIMTZ2OGg4VjE2aDZWOEgyMlptMCw2SDE4VjE2aDRabTYtMTB2NEgyNFYxMFoiLz48L3N2Zz4=;" vertex="1" parent="1">
          <mxGeometry x="665" y="400" width="60" height="60" as="geometry" />
        </mxCell>
        <mxCell id="aXKyPCOaUvqlNxAf72cW-40" value="" style="shape=image;aspect=fixed;image=data:image/svg+xml,PHN2ZyB4bWxucz0iaHR0cDovL3d3dy53My5vcmcvMjAwMC9zdmciIHhtbG5zOnhsaW5rPSJodHRwOi8vd3d3LnczLm9yZy8xOTk5L3hsaW5rIiB3aWR0aD0iMzIiIGhlaWdodD0iMzIiIHZpZXdCb3g9IjAgMCAzMiAzMiI+PGRlZnM+PHN0eWxlPi5he2ZpbGw6I2ZmZjt9LmJ7ZmlsbDp1cmwoI2EpO30uY3ttYXNrOnVybCgjYik7fS5ke2ZpbGw6dXJsKCNjKTt9LmV7ZmlsbDojMDAxZDZjO308L3N0eWxlPjxsaW5lYXJHcmFkaWVudCBpZD0iYSIgeDE9Ii0zMzEuNSIgeTE9Ii0xMjcuNSIgeDI9Ii0zMjEuNSIgeTI9Ii0xMjcuNSIgZ3JhZGllbnRUcmFuc2Zvcm09InRyYW5zbGF0ZSgzMzUuNSAxNDguNSkiIGdyYWRpZW50VW5pdHM9InVzZXJTcGFjZU9uVXNlIj48c3RvcCBvZmZzZXQ9IjAuMTMiLz48c3RvcCBvZmZzZXQ9IjAuODkiIHN0b3Atb3BhY2l0eT0iMCIvPjwvbGluZWFyR3JhZGllbnQ+PG1hc2sgaWQ9ImIiIHg9IjAiIHk9IjAiIHdpZHRoPSIzMiIgaGVpZ2h0PSIzMiIgbWFza1VuaXRzPSJ1c2VyU3BhY2VPblVzZSI+PGNpcmNsZSBjbGFzcz0iYSIgY3g9IjciIGN5PSIyNSIgcj0iMSIvPjxwYXRoIGNsYXNzPSJhIiBkPSJNMjgsMjBIMjZ2MmgydjZINFYyMmg5Ljk0VjIwSDRhMiwyLDAsMCwwLTIsMnY2YTIsMiwwLDAsMCwyLDJIMjhhMiwyLDAsMCwwLDItMlYyMkEyLDIsMCwwLDAsMjgsMjBaIi8+PHJlY3QgY2xhc3M9ImIiIHg9IjQiIHk9IjE5IiB3aWR0aD0iMTAiIGhlaWdodD0iNCIgdHJhbnNmb3JtPSJ0cmFuc2xhdGUoMTggNDIpIHJvdGF0ZSgxODApIi8+PC9tYXNrPjxsaW5lYXJHcmFkaWVudCBpZD0iYyIgeTE9IjMyIiB4Mj0iMzIiIGdyYWRpZW50VW5pdHM9InVzZXJTcGFjZU9uVXNlIj48c3RvcCBvZmZzZXQ9IjAuMSIgc3RvcC1jb2xvcj0iI2E1NmVmZiIvPjxzdG9wIG9mZnNldD0iMC45IiBzdG9wLWNvbG9yPSIjMGY2MmZlIi8+PC9saW5lYXJHcmFkaWVudD48L2RlZnM+PGcgY2xhc3M9ImMiPjxyZWN0IGNsYXNzPSJkIiB3aWR0aD0iMzIiIGhlaWdodD0iMzIiLz48L2c+PHBhdGggY2xhc3M9ImUiIGQ9Ik0xOCwxMEgxMFYyaDhaTTEyLDhoNFY0SDEyWiIvPjxwYXRoIGNsYXNzPSJlIiBkPSJNMjIsMTRIMTZ2OGg4VjE2aDZWOEgyMlptMCw2SDE4VjE2aDRabTYtMTB2NEgyNFYxMFoiLz48L3N2Zz4=;" vertex="1" parent="1">
          <mxGeometry x="790" y="400" width="60" height="60" as="geometry" />
        </mxCell>
        <mxCell id="aXKyPCOaUvqlNxAf72cW-41" value="Data bucket" style="text;html=1;align=center;verticalAlign=middle;whiteSpace=wrap;rounded=0;" vertex="1" parent="1">
          <mxGeometry x="665" y="470" width="70" height="30" as="geometry" />
        </mxCell>
        <mxCell id="aXKyPCOaUvqlNxAf72cW-44" value="Metrics bucket" style="text;html=1;align=center;verticalAlign=middle;whiteSpace=wrap;rounded=0;" vertex="1" parent="1">
          <mxGeometry x="790" y="470" width="80" height="30" as="geometry" />
        </mxCell>
        <mxCell id="aXKyPCOaUvqlNxAf72cW-52" value="" style="shape=image;aspect=fixed;image=data:image/svg+xml,PHN2ZyBpZD0iRXZlbnROb3RpZmljYXRpb24iIHhtbG5zPSJodHRwOi8vd3d3LnczLm9yZy8yMDAwL3N2ZyIgeG1sbnM6eGxpbms9Imh0dHA6Ly93d3cudzMub3JnLzE5OTkveGxpbmsiIHZpZXdCb3g9IjAgMCAzMiAzMiI+PGRlZnM+PGxpbmVhckdyYWRpZW50IGlkPSJueGt6M3N2eXJhIiB4MT0iMTQzLjMwOSIgeTE9IjE1LjQyMyIgeDI9IjE0Ny4xMzIiIHkyPSIxMy4yMTUiIGdyYWRpZW50VHJhbnNmb3JtPSJtYXRyaXgoMS4wNTMgLjUgLS42MDggLjg2NiAtMTIzLjI1MyAtNzIuMDA2KSIgZ3JhZGllbnRVbml0cz0idXNlclNwYWNlT25Vc2UiPjxzdG9wIG9mZnNldD0iLjIiLz48c3RvcCBvZmZzZXQ9IjEiIHN0b3Atb3BhY2l0eT0iMCIvPjwvbGluZWFyR3JhZGllbnQ+PGxpbmVhckdyYWRpZW50IGlkPSJvYTJwbWl4cWpiIiB4MT0iLTEyLjk1MiIgeTE9Ii0xNzIuOTYzIiB4Mj0iLTkuMTI5IiB5Mj0iLTE3NS4xNyIgZ3JhZGllbnRUcmFuc2Zvcm09Im1hdHJpeCgxLjAwNSAuNSAtLjU4IC44NjYgLTY5LjAxIDE3NS41NjIpIiB4bGluazpocmVmPSIjbnhrejNzdnlyYSIvPjxsaW5lYXJHcmFkaWVudCBpZD0iNmw4a3Jlb2FnZCIgeTE9IjMyIiB4Mj0iMzIiIGdyYWRpZW50VW5pdHM9InVzZXJTcGFjZU9uVXNlIj48c3RvcCBvZmZzZXQ9Ii4xIiBzdG9wLWNvbG9yPSIjMDhiZGJhIi8+PHN0b3Agb2Zmc2V0PSIuOSIgc3RvcC1jb2xvcj0iIzBmNjJmZSIvPjwvbGluZWFyR3JhZGllbnQ+PG1hc2sgaWQ9ImVwcjZ1ZWY0cmMiIHg9IjAiIHk9IjAiIHdpZHRoPSIzMiIgaGVpZ2h0PSIzMiIgbWFza1VuaXRzPSJ1c2VyU3BhY2VPblVzZSI+PHBhdGggZD0ibTE5LjUxMyAxNC45ODUgNS42MzQtMy41MDhhMi45NzcgMi45NzcgMCAwIDAgMS4yLjU2IDMuMDUzIDMuMDUzIDAgMCAwIC42MjguMDY2IDMuMDA2IDMuMDA2IDAgMSAwLTIuOTExLTIuM2wtNS42IDMuNDg5em02LjkwNi02LjcyMWEuOTg0Ljk4NCAwIDAgMSAuNTQzLS4xNjIgMSAxIDAgMCAxIC45OCAxLjIwNyAxIDEgMCAwIDEtMS44MTcuMzM4IDEgMSAwIDAgMSAuMjk0LTEuMzgzek0yOS41MTEgMjEuNDY2YTMuMDUxIDMuMDUxIDAgMCAwLTQuMTUtLjg3OSAyLjQ3OCAyLjQ3OCAwIDAgMC0uMi4xNTdsLTUuNjQ5LTMuNS0xLjA1MyAxLjcgNS42MTYgMy40NzdhMi45OSAyLjk5IDAgMCAwIDIuMjk0IDMuNjE0QTMuMDQ2IDMuMDQ2IDAgMCAwIDI3IDI2LjFhMyAzIDAgMCAwIDIuNTA5LTQuNjM3ek0yNy41NCAyMy45NGExIDEgMCAwIDEtMS4zODMtLjI5MyAxIDEgMCAwIDEgLjI5My0xLjM4MyAxLjA3IDEuMDcgMCAwIDEgMS4zODQuMjkzIDEgMSAwIDAgMS0uMjk0IDEuMzgzeiIgc3R5bGU9ImZpbGw6I2ZmZiIvPjxwYXRoIHRyYW5zZm9ybT0icm90YXRlKC0zMi4xMTEgMjAuOTE0IDEzLjAwNikiIHN0eWxlPSJmaWxsOnVybCgjbnhrejNzdnlyYSkiIGQ9Ik0xOC4yMzIgMTEuNDU2aDUuMzY3djMuMDk4aC01LjM2N3oiLz48cGF0aCB0cmFuc2Zvcm09InJvdGF0ZSgzNC4yMjkgMjAuODk2IDE5LjI5NSkiIHN0eWxlPSJmaWxsOnVybCgjb2EycG1peHFqYikiIGQ9Ik0xOC4zMzQgMTcuNzQ2aDUuMTI0djMuMDk4aC01LjEyNHoiLz48L21hc2s+PC9kZWZzPjxnIHN0eWxlPSJtYXNrOnVybCgjZXByNnVlZjRyYykiPjxwYXRoIHN0eWxlPSJmaWxsOnVybCgjNmw4a3Jlb2FnZCkiIGQ9Ik0wIDBoMzJ2MzJIMHoiLz48L2c+PHBhdGggZD0iTTE5LjM2MSAxMy45NDNhNCA0IDAgMCAwLTQuNjMzLTEuNTk1TDExLjM1IDYuOTg1YTIuOTkyIDIuOTkyIDAgMSAwLTQuNzcxLS4xMTcgMi45NDcgMi45NDcgMCAwIDAgMy4wNzIgMS4xNzVsMy40IDUuNGEzLjk1OCAzLjk1OCAwIDAgMC0uOTEzIDEuN2wtNC4zMDctLjAyOWEyLjkzMyAyLjkzMyAwIDAgMC0uMzg3LS43ODEgMyAzIDAgMCAwLTQuODc2IDMuNSAyLjk4NCAyLjk4NCAwIDAgMCAxLjk1MSAxLjIxMiAzLjA1NyAzLjA1NyAwIDAgMCAuNDk0LjA0IDMgMyAwIDAgMCAyLjgwOC0xLjk2OGw0LjMzMS4wMjlhMy43IDMuNyAwIDAgMCAxIDEuNzc5bC0zLjUzMSA1LjI1NGMtLjA0LS4wMDgtLjA3Ni0uMDI0LS4xMTYtLjAzMWEzIDMgMCAwIDAtMi45MjYgNC43MDkgMi45ODMgMi45ODMgMCAwIDAgMS45NSAxLjIxMiAzLjA1NyAzLjA1NyAwIDAgMCAuNDk0LjA0IDMgMyAwIDAgMCAyLjQzMi00Ljc0OGMtLjAzNy0uMDUyLS4wODUtLjA5My0uMTI1LS4xNDJsMy41NDUtNS4yNjhhNC4wMjggNC4wMjggMCAwIDAgMS4xMzguMTcxIDQgNCAwIDAgMCAzLjM0Ny02LjE3OXpNOC4yMDUgNS43YTEgMSAwIDAgMSAuMjMtMS40IDEgMSAwIDAgMSAxLjM5NS4yM0ExIDEgMCAwIDEgOC4yMDUgNS43ek01LjU5MyAxNi44OTNhMSAxIDAgMSAxIC4yMy0xLjQgMSAxIDAgMCAxLS4yMyAxLjR6TTkuNiAyNy45MjFBMSAxIDAgMSAxIDguNDM1IDI2LjNhMSAxIDAgMCAxIDEuMzk1LjIzIDEgMSAwIDAgMS0uMjMgMS4zOTF6bTguMzY0LTExLjM4M2EyIDIgMCAxIDEtLjI4LTEuNTA1IDEuOTg4IDEuOTg4IDAgMCAxIC4yOCAxLjUwNXoiIHN0eWxlPSJmaWxsOiMwMDFkNmMiLz48L3N2Zz4=;" vertex="1" parent="1">
          <mxGeometry x="940" y="169.53" width="66.5" height="66.5" as="geometry" />
        </mxCell>
        <mxCell id="aXKyPCOaUvqlNxAf72cW-53" value="IBM Cloud Event Notifications" style="text;html=1;align=center;verticalAlign=middle;whiteSpace=wrap;rounded=0;" vertex="1" parent="1">
          <mxGeometry x="930" y="255.55" width="100" height="30" as="geometry" />
        </mxCell>
        <mxCell id="aXKyPCOaUvqlNxAf72cW-54" value="IBM Cloud Object Storage" style="text;html=1;align=center;verticalAlign=middle;whiteSpace=wrap;rounded=0;" vertex="1" parent="1">
          <mxGeometry x="710" y="360" width="90" height="30" as="geometry" />
        </mxCell>
      </root>
    </mxGraphModel>
  </diagram>
</mxfile>
